<?xml version="1.0" encoding="UTF-8" standalone="no"?>
<!-- Created with Inkscape (http://www.inkscape.org/) -->

<svg
   xmlns:dc="http://purl.org/dc/elements/1.1/"
   xmlns:cc="http://creativecommons.org/ns#"
   xmlns:rdf="http://www.w3.org/1999/02/22-rdf-syntax-ns#"
   xmlns:svg="http://www.w3.org/2000/svg"
   xmlns="http://www.w3.org/2000/svg"
   xmlns:sodipodi="http://sodipodi.sourceforge.net/DTD/sodipodi-0.dtd"
   xmlns:inkscape="http://www.inkscape.org/namespaces/inkscape"
   width="104.99334mm"
   height="104.99334mm"
   viewBox="0 0 104.99334 104.99334"
   version="1.1"
   id="svg8"
   inkscape:version="0.92.3 (2405546, 2018-03-11)"
   sodipodi:docname="logo_no-text.svg">
  <defs
     id="defs2" />
  <sodipodi:namedview
     id="base"
     pagecolor="#ffffff"
     bordercolor="#666666"
     borderopacity="1.0"
     inkscape:pageopacity="0.0"
     inkscape:pageshadow="2"
     inkscape:zoom="0.9899495"
     inkscape:cx="-72.036179"
     inkscape:cy="180.27446"
     inkscape:document-units="mm"
     inkscape:current-layer="layer1"
     showgrid="false"
     inkscape:window-width="1680"
     inkscape:window-height="988"
     inkscape:window-x="-8"
     inkscape:window-y="-8"
     inkscape:window-maximized="1"
     fit-margin-top="0"
     fit-margin-left="0"
     fit-margin-right="0"
     fit-margin-bottom="0">
    <inkscape:grid
       type="xygrid"
       id="grid5672"
       originx="-51.989582"
       originy="-95.69416" />
  </sodipodi:namedview>
  <metadata
     id="metadata5">
    <rdf:RDF>
      <cc:Work
         rdf:about="">
        <dc:format>image/svg+xml</dc:format>
        <dc:type
           rdf:resource="http://purl.org/dc/dcmitype/StillImage" />
        <dc:title></dc:title>
      </cc:Work>
    </rdf:RDF>
  </metadata>
  <g
     inkscape:label="Layer 1"
     inkscape:groupmode="layer"
     id="layer1"
     transform="translate(-51.989582,-96.3125)">
    <rect
       style="fill:none;fill-opacity:1;stroke:#c50e1f;stroke-width:4.5;stroke-linecap:square;stroke-linejoin:miter;stroke-miterlimit:4;stroke-dasharray:none;stroke-opacity:1"
       id="rect5344"
       width="100.49334"
       height="100.49334"
       x="54.239582"
       y="98.5625"
       ry="0" />
    <text
       xml:space="preserve"
       style="font-style:normal;font-variant:normal;font-weight:normal;font-stretch:normal;font-size:63.5px;line-height:1.25;font-family:'OCR A Extended';-inkscape-font-specification:'OCR A Extended, Normal';font-variant-ligatures:normal;font-variant-caps:normal;font-variant-numeric:normal;font-feature-settings:normal;text-align:start;letter-spacing:0px;word-spacing:0px;writing-mode:lr-tb;text-anchor:start;fill:#c50e1f;fill-opacity:1;stroke:none;stroke-width:0.26458332"
       x="65.728928"
       y="167.12329"
       id="text5364"><tspan
         sodipodi:role="line"
         id="tspan5362"
         x="65.728928"
         y="167.12329"
         style="font-style:normal;font-variant:normal;font-weight:normal;font-stretch:normal;font-size:63.5px;font-family:'OCR A Extended';-inkscape-font-specification:'OCR A Extended, Normal';font-variant-ligatures:normal;font-variant-caps:normal;font-variant-numeric:normal;font-feature-settings:normal;text-align:start;writing-mode:lr-tb;text-anchor:start;fill:#c50e1f;fill-opacity:1;stroke-width:0.26458332">Ca</tspan></text>
    <g
       aria-label="CalcOPP"
       style="font-style:normal;font-variant:normal;font-weight:normal;font-stretch:normal;font-size:19.75555611px;line-height:1.25;font-family:'OCR A Extended';-inkscape-font-specification:'OCR A Extended, Normal';font-variant-ligatures:normal;font-variant-caps:normal;font-variant-numeric:normal;font-feature-settings:normal;text-align:start;letter-spacing:0px;word-spacing:0px;writing-mode:lr-tb;text-anchor:start;fill:#c50e1f;fill-opacity:1;stroke:none;stroke-width:0.26458332"
       id="text5368">
      <path
         d="m 69.055512,186.75446 h 2.922819 q 0.337619,0 0.578776,0.24115 0.250803,0.23151 0.250803,0.56913 0,0.33762 -0.250803,0.57878 -0.241157,0.23151 -0.578776,0.23151 h -3.028928 q -0.578776,0 -1.196137,-0.36656 -0.617362,-0.36656 -0.858518,-0.81993 l -1.871376,-3.61735 q -0.376205,-0.78135 -0.376205,-1.60128 0,-0.90675 0.356912,-1.57234 l 1.890669,-3.57877 q 0.270095,-0.5016 0.839225,-0.87781 0.56913,-0.38585 1.099675,-0.38585 h 3.20256 q 0.33762,0 0.56913,0.24116 0.241157,0.24115 0.241157,0.56913 0,0.33762 -0.241157,0.58842 -0.23151,0.24116 -0.56913,0.24116 h -3.086805 q -0.385851,0 -0.627008,0.45337 l -1.794205,3.3569 q -0.212218,0.3955 -0.212218,0.93569 0,0.56913 0.23151,1.00321 l 1.717036,3.29903 q 0.241156,0.51125 0.790994,0.51125 z"
         style="font-style:normal;font-variant:normal;font-weight:normal;font-stretch:normal;font-size:19.75555611px;font-family:'OCR A Extended';-inkscape-font-specification:'OCR A Extended, Normal';font-variant-ligatures:normal;font-variant-caps:normal;font-variant-numeric:normal;font-feature-settings:normal;text-align:start;writing-mode:lr-tb;text-anchor:start;fill:#c50e1f;fill-opacity:1;stroke-width:0.26458332"
         id="path832" />
      <path
         d="m 78.942936,182.52939 h 3.173622 q 0.260449,0 0.752409,0.11576 l -0.01929,-1.14791 q 0,-0.33762 -0.241156,-0.56913 -0.231511,-0.24115 -0.56913,-0.24115 h -3.077159 q -0.327974,0 -0.56913,-0.24116 -0.241157,-0.24116 -0.241157,-0.56913 0,-0.33762 0.23151,-0.56913 0.241157,-0.24116 0.578777,-0.24116 h 3.077159 q 1.003212,0 1.707389,0.70418 0.713824,0.70418 0.742763,1.72668 l 0.202571,6.0675 q 0,0.33762 -0.241156,0.57878 -0.241157,0.23151 -0.56913,0.23151 -0.347266,0 -0.588422,-0.23151 -0.241157,-0.24116 -0.241157,-0.57878 l -1.36977,0.81029 h -2.73954 q -1.022504,0 -1.736328,-0.71382 -0.713824,-0.71383 -0.713824,-1.73633 v -0.94534 q 0,-1.01285 0.713824,-1.72668 0.72347,-0.72347 1.736328,-0.72347 z m 4.051432,3.15433 -0.04823,-0.68488 q -0.0096,-0.34727 -0.241157,-0.57878 -0.23151,-0.23151 -0.569129,-0.23151 h -3.192915 q -0.337619,0 -0.578776,0.24116 -0.23151,0.23151 -0.23151,0.56913 v 0.90675 q 0,0.32797 0.241156,0.56913 0.241157,0.24115 0.56913,0.24115 h 2.286165 z"
         style="font-style:normal;font-variant:normal;font-weight:normal;font-stretch:normal;font-size:19.75555611px;font-family:'OCR A Extended';-inkscape-font-specification:'OCR A Extended, Normal';font-variant-ligatures:normal;font-variant-caps:normal;font-variant-numeric:normal;font-feature-settings:normal;text-align:start;writing-mode:lr-tb;text-anchor:start;fill:#c50e1f;fill-opacity:1;stroke-width:0.26458332"
         id="path834" />
      <path
         d="m 94.994325,188.37503 h -4.900304 q -0.337619,0 -0.578776,-0.24116 -0.23151,-0.2508 -0.23151,-0.58842 0,-0.32797 0.23151,-0.56913 0.241157,-0.24115 0.578776,-0.24115 h 1.620573 v -9.55946 h -1.639865 q -0.33762,0 -0.578776,-0.23151 -0.231511,-0.24115 -0.231511,-0.57877 0,-0.33762 0.231511,-0.56913 0.241156,-0.24116 0.578776,-0.24116 h 2.469444 q 0.327973,0 0.56913,0.24116 0.241157,0.24115 0.241157,0.56913 v 10.36974 h 1.639865 q 0.327973,0 0.56913,0.24115 0.241157,0.24116 0.241157,0.56913 0,0.33762 -0.241157,0.58842 -0.23151,0.24116 -0.56913,0.24116 z"
         style="font-style:normal;font-variant:normal;font-weight:normal;font-stretch:normal;font-size:19.75555611px;font-family:'OCR A Extended';-inkscape-font-specification:'OCR A Extended, Normal';font-variant-ligatures:normal;font-variant-caps:normal;font-variant-numeric:normal;font-feature-settings:normal;text-align:start;writing-mode:lr-tb;text-anchor:start;fill:#c50e1f;fill-opacity:1;stroke-width:0.26458332"
         id="path836" />
      <path
         d="m 107.74669,188.37503 h -3.46301 q -0.91639,0 -1.56269,-0.54984 l -1.57235,-1.36977 q -0.7524,-0.627 -0.7524,-1.69774 v -2.11253 q -0.0386,-1.03215 0.84887,-1.79421 l 1.418,-1.22507 q 0.68488,-0.55949 1.46623,-0.55949 h 3.63664 q 0.33762,0 0.56913,0.24116 0.24116,0.23151 0.24116,0.56913 0,0.34726 -0.24116,0.57877 -0.23151,0.23152 -0.56913,0.23152 h -3.4823 q -0.32797,0 -0.62701,0.26044 l -1.30224,1.10933 q -0.31833,0.27009 -0.31833,0.72347 v 1.97748 q 0,0.31833 0.2508,0.54019 l 1.42765,1.21543 q 0.2701,0.24116 0.71382,0.24116 h 3.31832 q 0.32797,0 0.56913,0.24115 0.24116,0.23151 0.24116,0.56913 0,0.33762 -0.24116,0.57878 -0.23151,0.23151 -0.56913,0.23151 z"
         style="font-style:normal;font-variant:normal;font-weight:normal;font-stretch:normal;font-size:19.75555611px;font-family:'OCR A Extended';-inkscape-font-specification:'OCR A Extended, Normal';font-variant-ligatures:normal;font-variant-caps:normal;font-variant-numeric:normal;font-feature-settings:normal;text-align:start;writing-mode:lr-tb;text-anchor:start;fill:#c50e1f;fill-opacity:1;stroke-width:0.26458332"
         id="path838" />
      <path
         d="m 118.29971,176.74163 1.78456,3.63664 q 0.3762,0.74277 0.3762,1.61093 0,0.84887 -0.3762,1.60128 l -1.78456,3.59806 q -0.56913,1.18649 -1.92926,1.18649 -0.6463,0 -1.16719,-0.33762 -0.51126,-0.33762 -0.77171,-0.84887 l -1.7942,-3.59806 q -0.35691,-0.70418 -0.35691,-1.60128 0,-0.8971 0.35691,-1.61093 l 1.7942,-3.63664 q 0.60772,-1.18649 1.9389,-1.18649 1.35048,0 1.92926,1.18649 z m -2.46945,0.81029 -1.67845,3.41478 q -0.23151,0.51125 -0.23151,1.00321 0,0.53054 0.23151,1.01286 l 1.72668,3.45336 q 0.13505,0.31833 0.49196,0.31833 0.30868,0 0.47267,-0.31833 l 1.73633,-3.45336 q 0.24116,-0.51126 0.24116,-1.01286 0,-0.53055 -0.24116,-1.00321 l -1.69774,-3.41478 q -0.16399,-0.37621 -0.51126,-0.37621 -0.34726,0 -0.54019,0.37621 z"
         style="font-style:normal;font-variant:normal;font-weight:normal;font-stretch:normal;font-size:19.75555611px;font-family:'OCR A Extended';-inkscape-font-specification:'OCR A Extended, Normal';font-variant-ligatures:normal;font-variant-caps:normal;font-variant-numeric:normal;font-feature-settings:normal;text-align:start;writing-mode:lr-tb;text-anchor:start;fill:#c50e1f;fill-opacity:1;stroke-width:0.26458332"
         id="path840" />
      <path
         d="m 124.22252,187.56474 v -12.0096 h 5.74917 q 0.99357,0 1.70739,0.72347 0.72347,0.72347 0.72347,1.72668 v 3.03858 q 0,1.00321 -0.71382,1.71703 -0.71383,0.71383 -1.71704,0.71383 h -4.10931 v 4.09001 q 0,0.33762 -0.24116,0.57878 -0.23151,0.23151 -0.56913,0.23151 -0.34726,0 -0.58842,-0.23151 -0.24115,-0.24116 -0.24115,-0.57878 z m 1.63986,-5.71059 h 4.10931 q 0.32797,0 0.56913,-0.23151 0.24116,-0.24115 0.24116,-0.57877 v -3.03858 q 0,-0.33762 -0.24116,-0.56913 -0.24116,-0.24115 -0.56913,-0.24115 h -4.10931 z"
         style="font-style:normal;font-variant:normal;font-weight:normal;font-stretch:normal;font-size:19.75555611px;font-family:'OCR A Extended';-inkscape-font-specification:'OCR A Extended, Normal';font-variant-ligatures:normal;font-variant-caps:normal;font-variant-numeric:normal;font-feature-settings:normal;text-align:start;writing-mode:lr-tb;text-anchor:start;fill:#c50e1f;fill-opacity:1;stroke-width:0.26458332"
         id="path842" />
      <path
         d="m 136.1453,187.56474 v -12.0096 h 5.74918 q 0.99356,0 1.70739,0.72347 0.72347,0.72347 0.72347,1.72668 v 3.03858 q 0,1.00321 -0.71383,1.71703 -0.71382,0.71383 -1.71703,0.71383 h -4.10931 v 4.09001 q 0,0.33762 -0.24116,0.57878 -0.23151,0.23151 -0.56913,0.23151 -0.34726,0 -0.58842,-0.23151 -0.24116,-0.24116 -0.24116,-0.57878 z m 1.63987,-5.71059 h 4.10931 q 0.32797,0 0.56913,-0.23151 0.24115,-0.24115 0.24115,-0.57877 v -3.03858 q 0,-0.33762 -0.24115,-0.56913 -0.24116,-0.24115 -0.56913,-0.24115 h -4.10931 z"
         style="font-style:normal;font-variant:normal;font-weight:normal;font-stretch:normal;font-size:19.75555611px;font-family:'OCR A Extended';-inkscape-font-specification:'OCR A Extended, Normal';font-variant-ligatures:normal;font-variant-caps:normal;font-variant-numeric:normal;font-feature-settings:normal;text-align:start;writing-mode:lr-tb;text-anchor:start;fill:#c50e1f;fill-opacity:1;stroke-width:0.26458332"
         id="path844" />
    </g>
    <g
       aria-label="2.0"
       style="font-style:normal;font-variant:normal;font-weight:normal;font-stretch:normal;font-size:12.69999981px;line-height:1.25;font-family:'OCR A Extended';-inkscape-font-specification:'OCR A Extended, Normal';font-variant-ligatures:normal;font-variant-caps:normal;font-variant-numeric:normal;font-feature-settings:normal;text-align:start;letter-spacing:0px;word-spacing:0px;writing-mode:lr-tb;text-anchor:start;fill:#c50e1f;fill-opacity:1;stroke:none;stroke-width:0.26458332"
       id="text5372">
      <path
         d="m 69.422071,117.48466 h -4.737695 v -3.59668 q 0,-0.43408 0.303857,-0.74414 0.310059,-0.31006 0.73794,-0.31006 h 3.162597 v -2.53628 h -3.720703 q -0.223242,0 -0.37207,-0.14883 -0.148828,-0.15503 -0.148828,-0.37207 0,-0.21704 0.148828,-0.36587 0.148828,-0.15502 0.37207,-0.15502 h 3.720703 q 0.434082,0 0.744141,0.31005 0.310058,0.30386 0.310058,0.73174 v 2.53628 q 0,0.44028 -0.310058,0.75034 -0.310059,0.30386 -0.744141,0.30386 h -3.162597 v 2.55488 h 3.695898 q 0.21084,0 0.365869,0.15503 0.155029,0.14883 0.155029,0.36587 0,0.21704 -0.155029,0.37207 -0.155029,0.14883 -0.365869,0.14883 z"
         style="font-style:normal;font-variant:normal;font-weight:normal;font-stretch:normal;font-size:12.69999981px;font-family:'OCR A Extended';-inkscape-font-specification:'OCR A Extended, Normal';font-variant-ligatures:normal;font-variant-caps:normal;font-variant-numeric:normal;font-feature-settings:normal;text-align:start;writing-mode:lr-tb;text-anchor:start;fill:#c50e1f;fill-opacity:1;stroke-width:0.26458332"
         id="path820" />
      <path
         d="m 74.44502,114.21044 h 1.0542 q 0.210839,0 0.365869,0.15503 0.155029,0.14883 0.155029,0.36587 v 0.88677 q 0,0.21704 -0.155029,0.37827 -0.148828,0.15503 -0.365869,0.15503 h -1.066602 q -0.217041,0 -0.37207,-0.15503 -0.148828,-0.15503 -0.148828,-0.36587 v -0.89917 q 0,-0.21704 0.155029,-0.36587 0.155029,-0.15503 0.378271,-0.15503 z"
         style="font-style:normal;font-variant:normal;font-weight:normal;font-stretch:normal;font-size:12.69999981px;font-family:'OCR A Extended';-inkscape-font-specification:'OCR A Extended, Normal';font-variant-ligatures:normal;font-variant-caps:normal;font-variant-numeric:normal;font-feature-settings:normal;text-align:start;writing-mode:lr-tb;text-anchor:start;fill:#c50e1f;fill-opacity:1;stroke-width:0.26458332"
         id="path822" />
      <path
         d="m 80.00127,116.48007 v -6.23218 q 0,-0.40927 0.297657,-0.70693 0.297656,-0.29766 0.706933,-0.29766 h 3.249414 q 0.403076,0 0.694532,0.29766 0.297656,0.29766 0.297656,0.70693 v 6.23218 q 0,0.41548 -0.297656,0.71314 -0.291456,0.29145 -0.706934,0.29145 H 81.00586 q -0.421679,0 -0.713134,-0.29145 -0.291456,-0.29766 -0.291456,-0.71314 z m 4.216797,-0.0372 v -6.14536 h -3.175 v 6.14536 z"
         style="font-style:normal;font-variant:normal;font-weight:normal;font-stretch:normal;font-size:12.69999981px;font-family:'OCR A Extended';-inkscape-font-specification:'OCR A Extended, Normal';font-variant-ligatures:normal;font-variant-caps:normal;font-variant-numeric:normal;font-feature-settings:normal;text-align:start;writing-mode:lr-tb;text-anchor:start;fill:#c50e1f;fill-opacity:1;stroke-width:0.26458332"
         id="path824" />
    </g>
  </g>
</svg>
